<svg width="44" height="39" viewBox="0 0 44 39" fill="none" xmlns="http://www.w3.org/2000/svg">
<path d="M6.06715 1.32235C5.71562 1.13088 5.36408 0.939409 4.99136 0.773586C4.79085 0.688285 4.6114 0.827476 4.45568 1.10978C3.95804 2.01702 3.81556 2.7598 4.26883 3.19523C4.66683 3.58042 5.11116 3.91732 5.53006 4.28499C6.71961 5.32874 8.1628 6.081 8.96371 7.56411C9.12099 7.85018 9.42941 7.99229 9.6706 8.20019C10.8811 9.22643 12.0958 10.2475 13.2896 11.2862C13.5268 11.491 13.7717 11.7101 13.8999 12.0158C14.2014 12.7365 14.7684 13.1748 15.2849 13.6665C15.7972 14.1634 16.3851 14.5841 16.8174 15.1621C17.6307 16.2709 18.634 17.1652 19.6162 18.085C20.0185 18.4651 20.4416 18.8276 20.7848 19.2714C21.5259 20.2254 22.3391 21.0921 23.2488 21.8654C23.7907 22.3263 24.3781 22.7633 24.7519 23.3887C25.2645 24.2445 26.0013 24.8365 26.6913 25.4931C27.0343 25.8199 27.4652 26.0716 27.7031 26.5022C28.3472 27.6829 29.4012 28.3987 30.3747 29.2119C31.3483 30.0251 32.3387 30.8178 33.3207 31.6208L33.2741 31.6772C34.0318 32.2517 34.7681 32.86 35.5555 33.3987C36.4741 34.0284 37.4353 34.5987 38.3877 35.1875C38.4475 35.2244 38.5666 35.1896 38.6603 35.1856C38.7411 34.9549 38.8963 34.6889 38.89 34.509C38.8875 34.2151 38.8318 33.931 38.7084 33.729C37.8474 32.3421 36.9445 30.9902 36.0835 29.6033C34.7054 27.374 33.1589 25.3172 31.2754 23.6139C29.7474 22.23 28.5778 20.4591 26.9738 19.1594C26.8468 19.0632 26.7411 18.9413 26.6562 18.8019C25.8512 17.5659 24.7171 16.6893 23.6294 15.7645C22.8463 15.0956 21.9081 14.5678 21.3476 13.6841C20.6365 12.561 19.5819 11.8615 18.659 10.9949C18.079 10.455 17.4779 9.94086 16.9149 9.38052C15.4541 7.93091 13.9213 6.5685 12.2786 5.33132C11.5248 4.75979 10.5971 4.40671 10.0094 3.61073C9.6865 3.16577 9.09048 2.98911 8.59929 2.71678C7.76107 2.2397 6.91411 1.78102 6.06318 1.31934L6.06715 1.32235Z" fill="black"/>
<path d="M34.4321 1.965C34.751 1.73798 35.07 1.51096 35.4077 1.30269C35.5873 1.19206 35.758 1.29363 35.9103 1.5289C36.3904 2.2785 36.543 2.93562 36.1392 3.40256C35.785 3.81552 35.386 4.19056 35.0095 4.58811C33.948 5.72424 32.6392 6.62696 31.9445 8.10235C31.8097 8.38914 31.5296 8.56514 31.3091 8.78695C30.2252 9.90767 29.1376 11.0246 28.0685 12.1533C27.8553 12.3755 27.639 12.6152 27.5301 12.9141C27.275 13.6196 26.762 14.1018 26.3051 14.6332C25.8482 15.1646 25.3167 15.6351 24.9382 16.2311C24.2198 17.3648 23.3255 18.3365 22.4461 19.3231C22.0845 19.7286 21.708 20.1261 21.4062 20.5845C20.7532 21.5695 20.029 22.4831 19.2115 23.3243C18.7246 23.8257 18.1972 24.3142 17.8706 24.9413C17.4224 25.7993 16.7606 26.4505 16.1439 27.1539C15.8392 27.5058 15.4453 27.796 15.2414 28.2279C14.6811 29.4023 13.7314 30.2149 12.8605 31.1063C11.9896 31.9977 11.0999 32.8703 10.2215 33.7542L10.2666 33.7993C9.58612 34.4388 8.92465 35.1043 8.21421 35.7138C7.38603 36.4268 6.52015 37.0952 5.66196 37.7781C5.60833 37.8212 5.49843 37.8081 5.4148 37.8212C5.33655 37.6255 5.18459 37.4044 5.1838 37.2378C5.18036 36.9717 5.22062 36.701 5.32841 36.4978C6.08367 35.1037 6.87607 33.733 7.62758 32.3352C8.83498 30.094 10.1992 27.982 11.8847 26.1429C13.2508 24.6478 14.2766 22.8539 15.7137 21.4229C15.8277 21.3158 15.9192 21.1861 15.9958 21.0486C16.7039 19.8008 17.7224 18.8289 18.6922 17.8153C19.3959 17.0884 20.241 16.4614 20.7321 15.5704C21.3556 14.4385 22.3019 13.6363 23.128 12.707C23.6456 12.1258 24.1821 11.5634 24.6847 10.9672C25.9873 9.42247 27.3575 7.94531 28.8326 6.5661C29.5094 5.92987 30.3515 5.46581 30.8665 4.64696C31.1501 4.19112 31.6949 3.94109 32.1353 3.61442C32.8945 3.05362 33.6577 2.50368 34.4281 1.95414L34.4321 1.965Z" fill="black"/>
</svg>
