<svg width="153" height="150" viewBox="0 0 153 150" fill="none" xmlns="http://www.w3.org/2000/svg">
<g clip-path="url(#clip0_5_137)">
<path d="M16.451 11.4522C18.94 14.803 22.3825 17.584 26.277 19.1263C30.1715 20.6685 34.5614 20.8915 38.7221 19.9624C41.3288 19.3802 43.7992 18.3768 46.0839 16.9956C46.7092 16.6116 47.7742 16.9461 48.3995 17.1752C48.5915 17.2434 50.0217 17.8937 49.4583 18.2344C40.1462 23.8892 27.8621 23.0283 19.0267 16.816C16.6677 15.1561 14.6245 13.1555 12.9094 10.8452C12.507 10.3002 14.2282 10.4364 14.3583 10.455C15.0889 10.5789 15.9928 10.8328 16.4572 11.4584L16.451 11.4522Z" fill="black"/>
<path d="M8.03047 2.07493C7.13889 6.08847 6.74262 10.2816 7.62802 14.3385C8.51341 18.3954 10.6309 21.5481 13.1323 24.6202C15.6337 27.6922 18.3394 30.5723 20.5932 33.8302C22.8469 37.0882 24.8282 40.8354 25.7136 44.8117C26.5495 48.5528 26.4876 52.5787 24.9954 56.1463C23.689 59.2803 21.4043 61.9994 18.3518 63.5478C12.0364 66.75 2.6438 64.1052 0.557237 56.8957C-0.445798 53.4334 0.40864 49.5871 3.05863 47.0848C5.96868 44.341 10.1975 43.5854 13.993 44.5702C14.4883 44.7003 15.7328 45.1524 15.5718 45.8647C15.4108 46.577 13.9744 46.3044 13.5595 46.1991C12.5256 45.9328 11.1077 45.9947 9.88175 46.3973C8.51341 46.8495 7.2751 47.5803 6.25349 48.5961C4.1112 50.7206 3.33106 53.8422 3.97499 56.7595C4.5508 59.3608 6.32778 61.8383 8.76726 62.6373C11.3553 63.4797 14.5254 62.7302 16.8101 61.0889C22.6178 56.9081 23.6394 49.1536 21.7139 42.6873C19.5406 35.3973 14.2097 30.0706 9.56598 24.3043C7.03363 21.164 4.86658 17.7079 4.01833 13.713C3.13913 9.55697 3.52301 5.22754 4.43936 1.1149C4.68702 -0.00617178 8.29052 0.891927 8.03047 2.07493Z" fill="black"/>
<path d="M36.7099 43.5854C35.5087 36.4687 31.7876 29.922 25.9675 25.5987C25.2616 25.0784 24.0481 24.8121 23.1937 24.8555C22.4259 24.8988 22.3949 25.3014 22.9646 25.7226C24.3205 26.7322 25.5526 27.9214 26.6547 29.2035C31.156 34.4434 33.4159 41.6219 33.2302 48.4784C33.0383 55.4526 29.9858 61.8135 25.014 66.6508C22.3702 69.2212 19.2868 71.3333 15.9619 72.9189C12.6184 74.5169 8.823 75.0805 5.7334 77.1926C3.02769 79.0445 0.891593 81.8689 0.222902 85.1144C0.0247719 86.0682 5.50625e-06 87.0159 5.42178e-06 87.9821L0 150L3.9688 150C4.00595 148.383 3.91308 146.742 3.91308 145.138L3.91308 104.587C3.91308 99.1989 3.87593 93.8104 3.91308 88.4156C3.93166 85.8143 4.82943 83.2872 6.45163 81.2495C7.52277 79.9116 8.87872 78.7968 10.3585 77.9358C11.9621 77.0068 13.6958 76.5546 15.4356 75.9662C22.4383 73.6064 28.7784 69.1469 32.8958 62.947C36.7222 57.193 37.8491 50.3551 36.7099 43.5854Z" fill="black"/>
<path d="M93.5609 10.3807C93.2575 11.3655 93.2699 12.406 93.6662 13.3661C93.8519 13.8058 94.0872 14.2208 94.4092 14.5739C94.6816 14.8773 95.0159 15.1127 95.276 15.2428C95.6041 15.41 95.0407 15.1808 95.3874 15.2985C95.5298 15.3481 95.6784 15.3852 95.8332 15.4162C96.0809 15.4658 95.8889 15.4162 95.8456 15.4162C95.9942 15.4348 96.1552 15.4534 96.3038 15.4534C96.1738 15.4534 96.7248 15.4224 96.8239 15.41C97.0653 15.379 97.344 15.3047 97.5978 15.218C98.6009 14.8711 99.3996 14.1589 99.9878 13.2917C101.263 11.4088 101.263 8.90657 100.155 6.96174C99.672 6.1132 98.9723 5.35137 98.2479 4.80632C97.8083 4.47805 97.4183 4.2241 97.0653 4.03829C96.8301 3.91442 96.5886 3.80293 96.3471 3.69763C96.2109 3.6357 96.0685 3.57995 95.9261 3.52421C96.1366 3.60473 95.9013 3.51182 95.8146 3.48705C92.7746 2.51463 89.555 2.76238 86.4158 2.97297C85.4747 3.0349 84.2178 2.66948 83.7473 1.77758C83.2767 0.885681 84.1435 0.309658 84.936 0.253916C88.7377 -2.81623e-05 92.6879 -0.223001 96.3719 0.941423C99.4367 1.91384 102.384 3.78435 104.006 6.63966C105.529 9.32155 105.43 12.6971 103.597 15.2056C101.573 17.9804 97.6535 18.8104 94.4896 17.745C91.0348 16.5806 88.3228 13.044 89.4745 9.29678C90.0008 7.5935 94.0686 8.70837 93.5485 10.3869L93.5609 10.3807Z" fill="black"/>
<path d="M19.6025 3.20835C21.4724 6.10082 24.0914 8.58451 27.2058 10.1082C30.3201 11.6318 33.8989 12.1211 37.5024 11.3593C45.9229 9.5879 52.6098 3.49326 60.8694 1.23255C67.6368 -0.61938 76.6145 0.563627 80.571 7.07325C82.4842 10.2259 82.7009 14.4004 81.0477 17.7017C79.3946 21.003 76.144 23.177 72.5467 23.753C68.2621 24.4405 63.3955 22.8363 60.9127 19.1325C58.7704 15.9365 59.4143 11.3903 62.6587 9.20389C63.7484 8.46683 67.0176 10.0277 65.4821 11.0682C63.0364 12.7157 62.6711 16.3577 64.1695 18.7484C65.6678 21.1392 68.5717 22.0993 71.296 21.4551C74.4723 20.7057 77.1161 18.3211 78.0819 15.1932C79.0478 12.0654 78.4844 8.44206 76.2554 5.99553C74.2556 3.80295 71.6613 2.92344 68.9308 2.70046C65.5564 2.42794 62.0953 3.44372 58.9871 4.80015C51.6811 7.97753 45.0932 13.1183 36.9266 13.9049C28.7599 14.6915 20.6551 10.2382 16.2343 3.40655C15.7638 2.68188 16.643 2.22354 17.2497 2.18018C18.0856 2.12444 19.132 2.4713 19.6087 3.20216L19.6025 3.20835Z" fill="black"/>
<path d="M153 2.50225L153 0.0247526L152.969 0.0247526C149.186 -0.0186036 145.403 -1.97135e-05 141.614 0.0185613C138.345 0.0433356 135.069 0.0619091 131.794 0.0495215C128.84 0.0309399 125.807 -0.204421 122.915 0.545022C121.559 0.898065 120.278 1.53602 119.219 2.45889C118.203 3.3322 117.361 4.36656 116.445 5.33898C115.69 6.14417 114.854 6.88742 113.752 7.15994C113.56 7.2033 113.417 7.22807 113.188 7.24045C113.12 7.24045 113.071 7.24665 113.033 7.24665C113.027 7.24665 113.015 7.24665 113.009 7.24665L112.959 7.24665C112.959 7.24665 112.934 7.24665 112.928 7.25284L112.922 7.25284C112.922 7.25284 112.872 7.24046 112.854 7.22807C112.755 7.1971 112.767 7.18472 112.817 7.20949C112.718 7.14755 112.742 7.1971 112.643 7.04226C112.129 6.28662 111.213 5.87784 110.297 5.97074C109.665 6.03887 108.73 6.63347 109.232 7.37672C111.089 10.1329 114.984 10.3126 117.671 8.67741C120.005 7.25285 121.194 4.4285 123.732 3.28265C126.296 2.12443 129.429 2.50844 132.153 2.52083C139.1 2.55799 146.053 2.42173 153 2.49606L153 2.50225Z" fill="black"/>
</g>
<defs>
<clipPath id="clip0_5_137">
<rect width="153" height="150" fill="white" transform="matrix(1 8.74228e-08 8.74228e-08 -1 0 150)"/>
</clipPath>
</defs>
</svg>
